<?xml version="1.0" standalone="no"?>
<!DOCTYPE svg PUBLIC "-//W3C//DTD SVG 20010904//EN"
 "http://www.w3.org/TR/2001/REC-SVG-20010904/DTD/svg10.dtd">
<svg version="1.0" xmlns="http://www.w3.org/2000/svg"
 width="396.000000pt" height="167.000000pt" viewBox="0 0 396.000000 167.000000"
 preserveAspectRatio="xMidYMid meet" >
<metadata>
Created by potrace 1.16, written by Peter Selinger 2001-2019
</metadata>
<g transform="translate(0.000000,167.000000) scale(0.100000,-0.100000)"
fill="#535CE8" stroke="none">
<path d="M3735 1665 c-5 -2 -22 -6 -37 -9 -34 -8 -94 -59 -114 -97 -16 -33
-19 -125 -3 -166 26 -70 98 -114 183 -114 97 0 157 42 182 129 37 127 -32 240
-156 255 -25 3 -49 4 -55 2z"/>
<path d="M450 1154 c-90 -19 -198 -75 -266 -137 -104 -94 -156 -202 -175 -360
-31 -251 83 -473 296 -580 156 -78 371 -92 633 -40 l82 16 0 157 0 158 -37 -8
c-80 -18 -281 -32 -363 -27 -93 6 -153 24 -201 59 -30 22 -65 75 -56 85 3 2
38 -6 78 -19 59 -18 96 -23 179 -22 170 1 300 45 396 136 69 65 97 130 97 224
-1 222 -210 375 -508 373 -49 0 -119 -7 -155 -15z m290 -329 c24 -13 30 -22
30 -50 0 -42 -19 -61 -73 -76 -80 -22 -317 6 -317 37 0 18 71 76 111 90 51 18
213 17 249 -1z"/>
<path d="M1626 1155 c-188 -48 -328 -176 -393 -361 l-28 -79 -3 -347 -3 -348
170 0 171 0 0 313 c0 367 5 396 75 463 95 92 282 82 359 -19 49 -64 56 -123
56 -454 l0 -303 171 0 171 0 -5 338 c-3 274 -7 348 -21 397 -53 194 -176 323
-371 390 -70 24 -270 30 -349 10z"/>
<path d="M2313 1148 c3 -7 84 -206 181 -443 97 -237 200 -487 229 -557 l52
-128 171 0 172 0 80 198 c45 108 149 362 231 564 83 202 151 370 151 373 0 3
-74 5 -165 5 l-165 0 -13 -32 c-8 -18 -44 -112 -80 -208 -137 -363 -202 -524
-211 -523 -5 1 -73 168 -152 371 -78 204 -145 375 -148 381 -11 17 -340 15
-333 -1z"/>
<path d="M3590 590 l0 -570 170 0 170 0 0 570 0 570 -170 0 -170 0 0 -570z"/>
</g>
</svg>
